<?xml version="1.0" encoding="UTF-8" standalone="no"?>
<svg
   width="139.2mm"
   height="132.2mm"
   viewBox="0 0 139.2 132.2"
   version="1.1"
   preserveAspectRatio="xMidYMid meet"
   id="svg9"
   sodipodi:docname="sipeed_maix_bit.svg"
   inkscape:version="1.1.2 (b8e25be833, 2022-02-05)"
   xmlns:inkscape="http://www.inkscape.org/namespaces/inkscape"
   xmlns:sodipodi="http://sodipodi.sourceforge.net/DTD/sodipodi-0.dtd"
   xmlns="http://www.w3.org/2000/svg"
   xmlns:svg="http://www.w3.org/2000/svg">
  <defs
     id="defs13" />
  <sodipodi:namedview
     id="namedview11"
     pagecolor="#505050"
     bordercolor="#eeeeee"
     borderopacity="1"
     inkscape:pageshadow="0"
     inkscape:pageopacity="0"
     inkscape:pagecheckerboard="0"
     inkscape:document-units="mm"
     showgrid="false"
     inkscape:zoom="2.269645"
     inkscape:cx="437.73365"
     inkscape:cy="112.35237"
     inkscape:window-width="1920"
     inkscape:window-height="1017"
     inkscape:window-x="-8"
     inkscape:window-y="-8"
     inkscape:window-maximized="1"
     inkscape:current-layer="svg9"
     fit-margin-top="1"
     fit-margin-left="1"
     fit-margin-right="1"
     fit-margin-bottom="1" />
  <path
     d="m 68.1,1.1 h -9.125 v 3 h -9.75 v -3 h -9.75 v 3 h -9.75 v -3 h -9.75 v 3 h -9.75 v -3 H 1.1 v 9.875 h 3 v 9.75 h -3 v 9.75 h 3 v 9.75 h -3 V 50.1 h 9.125 v -3 h 9.75 v 3 h 9.75 v -3 h 9.75 v 3 h 9.75 v -3 h 9.75 v 3 H 68.1 v -9.875 h -3 v -9.75 h 3 v -9.75 h -3 v -9.75 h 3 z"
     id="front_outsideCutPath"
     stroke="#FF0000"
     stroke-width="0.1"
     style="font-size:12px;fill:none;fill-rule:evenodd;stroke:#ff0000;stroke-width:0.2;stroke-linecap:round;stroke-miterlimit:4;stroke-dasharray:none;stroke-opacity:1"
     vector-effect="non-scaling-stroke" />
  <path
     d="m 68.1,56.1 h -9.125 v -3 h -9.75 v 3 h -9.75 v -3 h -9.75 v 3 h -9.75 v -3 h -9.75 v 3 H 1.1 v 5.125 h 3 v 9.75 h -3 V 76.1 h 9.125 v 3 h 9.75 v -3 h 9.75 v 3 h 9.75 v -3 h 9.75 v 3 h 9.75 v -3 H 68.1 v -5.125 h -3 v -9.75 h 3 z"
     id="left_outsideCutPath"
     stroke="#FF0000"
     stroke-width="0.1"
     style="font-size:12px;fill:none;fill-rule:evenodd;stroke:#ff0000;stroke-width:0.2;stroke-linecap:round;stroke-miterlimit:4;stroke-dasharray:none;stroke-opacity:1"
     vector-effect="non-scaling-stroke" />
  <path
     d="m 24.1,85.1 h -5.125 v -3 h -9.75 v 3 H 4.1 v 6.875 h -3 v 9.75 h 3 v 9.75 h -3 v 9.75 h 3 v 6.875 h 5.125 v 3 h 9.75 v -3 H 24.1 v -6.875 h 3 v -9.75 h -3 v -9.75 h 3 v -9.75 h -3 z"
     id="top_outsideCutPath"
     stroke="#FF0000"
     stroke-width="0.1"
     style="font-size:12px;fill:none;fill-rule:evenodd;stroke:#ff0000;stroke-width:0.2;stroke-linecap:round;stroke-miterlimit:4;stroke-dasharray:none;stroke-opacity:1"
     vector-effect="non-scaling-stroke" />
  <path
     d="m 138.1,1.1 h -9.125 v 3 h -9.75 v -3 h -9.75 v 3 h -9.75 v -3 h -9.75 v 3 h -9.75 v -3 H 71.1 v 9.875 h 3 v 9.75 h -3 v 9.75 h 3 v 9.75 h -3 V 50.1 h 9.125 v -3 h 9.75 v 3 h 9.75 v -3 h 9.75 v 3 h 9.75 v -3 h 9.75 v 3 h 9.125 v -9.875 h -3 v -9.75 h 3 v -9.75 h -3 v -9.75 h 3 z"
     id="back_outsideCutPath"
     stroke="#FF0000"
     stroke-width="0.1"
     style="font-size:12px;fill:none;fill-rule:evenodd;stroke:#ff0000;stroke-width:0.2;stroke-linecap:round;stroke-miterlimit:4;stroke-dasharray:none;stroke-opacity:1"
     vector-effect="non-scaling-stroke" />
  <path
     d="m 138.1,56.1 h -9.125 v -3 h -9.75 v 3 h -9.75 v -3 h -9.75 v 3 h -9.75 v -3 h -9.75 v 3 H 71.1 v 5.125 h 3 v 9.75 h -3 V 76.1 h 9.125 v 3 h 9.75 v -3 h 9.75 v 3 h 9.75 v -3 h 9.75 v 3 h 9.75 v -3 h 9.125 v -5.125 h -3 v -9.75 h 3 z"
     id="right_outsideCutPath"
     stroke="#FF0000"
     stroke-width="0.1"
     style="font-size:12px;fill:none;fill-rule:evenodd;stroke:#ff0000;stroke-width:0.2;stroke-linecap:round;stroke-miterlimit:4;stroke-dasharray:none;stroke-opacity:1"
     vector-effect="non-scaling-stroke" />
  <path
     d="m 53.1,85.1 h -5.125 v -3 h -9.75 v 3 H 33.1 v 6.875 h -3 v 9.75 h 3 v 9.75 h -3 v 9.75 h 3 v 6.875 h 5.125 v 3 h 9.75 v -3 H 53.1 v -6.875 h 3 v -9.75 h -3 v -9.75 h 3 v -9.75 h -3 z"
     id="bottom_outsideCutPath"
     stroke="#FF0000"
     stroke-width="0.1"
     style="font-size:12px;fill:none;fill-rule:evenodd;stroke:#ff0000;stroke-width:0.2;stroke-linecap:round;stroke-miterlimit:4;stroke-dasharray:none;stroke-opacity:1"
     vector-effect="non-scaling-stroke" />
  <path
     id="rect858"
     style="fill:none;stroke:#ff0000;stroke-width:0.2;stroke-miterlimit:4;stroke-dasharray:none;stroke-opacity:1"
     d="m 131.88901,83.860322 h -25.50025 v -2.999817 h -9.999909 v 2.999817 H 71.889056 v 42.999958 h 24.499795 v 3.00034 h 9.999909 v -3.00034 h 25.50025 z" />
  <rect
     style="fill:none;stroke:#ff0000;stroke-width:0.2;stroke-miterlimit:4;stroke-dasharray:none;stroke-opacity:1"
     id="rect1168"
     width="3"
     height="10"
     x="59.099998"
     y="-109.6"
     transform="rotate(90)" />
  <rect
     style="fill:none;stroke:#ff0000;stroke-width:0.2;stroke-miterlimit:4;stroke-dasharray:none;stroke-opacity:1"
     id="rect1168-0"
     width="3"
     height="10"
     x="59.099998"
     y="-39.599998"
     transform="rotate(90)" />
  <circle
     style="fill:none;stroke:#ff0000;stroke-width:0.2;stroke-miterlimit:4;stroke-dasharray:none;stroke-opacity:1"
     id="path1502"
     cx="25.6"
     cy="-104.6"
     r="7.5"
     transform="rotate(90)" />
  <rect
     style="fill:none;stroke:#ff0000;stroke-width:0.2;stroke-miterlimit:4;stroke-dasharray:none;stroke-opacity:1"
     id="rect1606"
     width="13"
     height="10"
     x="100.1"
     y="-53.099998"
     transform="rotate(90)" />
  <text
     xml:space="preserve"
     style="font-style:normal;font-variant:normal;font-weight:normal;font-stretch:normal;font-size:3.52777px;line-height:125%;font-family:'French Script MT';-inkscape-font-specification:'French Script MT';letter-spacing:0px;word-spacing:0px;fill:#000000;fill-opacity:1;stroke:none;stroke-width:0.264583px;stroke-linecap:butt;stroke-linejoin:miter;stroke-opacity:1"
     x="88.629433"
     y="10.551144"
     id="text3002"><tspan
       sodipodi:role="line"
       id="tspan3000"
       style="font-style:normal;font-variant:normal;font-weight:bold;font-stretch:normal;font-family:'Courier New';-inkscape-font-specification:'Courier New Bold';stroke-width:0.264583px"
       x="88.629433"
       y="10.551144">Sipeed Maix Bit</tspan></text>
  <path
     style="fill:#000000;fill-opacity:1;stroke:none;stroke-width:0.254001;stroke-miterlimit:4;stroke-dasharray:none;stroke-opacity:1"
     d="m 130.62157,43.338526 c -0.37907,-0.03584 -0.69246,-0.230256 -0.88812,-0.550899 -0.24767,-0.40588 -0.28354,-0.975841 -0.0912,-1.449362 0.12596,-0.310018 0.33972,-0.548643 0.60815,-0.678782 0.17008,-0.08246 0.34757,-0.121607 0.55139,-0.121607 0.53325,0 0.9104,0.247848 1.06041,0.696859 0.0278,0.08301 0.0543,0.20197 0.0599,0.267446 l 0.003,0.03919 -0.2051,-0.0014 -0.2051,-0.0014 -0.0183,-0.0725 c -0.0791,-0.313475 -0.27839,-0.491748 -0.59067,-0.528367 -0.0709,-0.0083 -0.20359,-0.0036 -0.26869,0.0089 -0.27679,0.05468 -0.49367,0.253567 -0.60753,0.557089 -0.1035,0.275849 -0.10648,0.620531 -0.007,0.899813 0.0486,0.138204 0.12358,0.260164 0.21664,0.353177 0.10767,0.107627 0.22288,0.169707 0.37304,0.201113 0.0849,0.01777 0.2735,0.01907 0.3493,0.0021 0.24049,-0.05277 0.41909,-0.210108 0.51587,-0.454507 0.0352,-0.08916 0.0477,-0.140985 0.0733,-0.307514 l 0.003,-0.01884 h 0.20564 0.20564 v 0.01593 c 0,0.0088 -0.004,0.04998 -0.0104,0.09154 -0.0425,0.28855 -0.14247,0.530094 -0.29211,0.704997 -0.14143,0.165272 -0.34398,0.280697 -0.57392,0.326896 -0.0391,0.0079 -0.0982,0.017 -0.13117,0.02035 -0.0695,0.0071 -0.2582,0.0064 -0.33433,-7.14e-4 z m -5.59978,-0.0036 c -0.061,-0.0043 -0.19356,-0.02613 -0.25809,-0.04198 -0.13608,-0.03342 -0.25965,-0.08477 -0.3567,-0.148213 -0.0589,-0.03855 -0.15351,-0.133995 -0.18782,-0.189654 -0.0767,-0.124552 -0.11094,-0.273992 -0.11793,-0.5167 l -0.003,-0.120418 0.19941,0.0014 0.19938,0.0014 0.0161,0.1305 c 0.025,0.203855 0.0485,0.264897 0.13489,0.3509 0.0567,0.05647 0.10827,0.08954 0.19116,0.122648 0.16284,0.06505 0.37723,0.08122 0.56412,0.04262 0.21532,-0.04448 0.36545,-0.15749 0.4051,-0.304921 0.0134,-0.05119 0.0119,-0.135304 -0.003,-0.191353 -0.0285,-0.104489 -0.0909,-0.166921 -0.23377,-0.234332 -0.10737,-0.0507 -0.18786,-0.07406 -0.57848,-0.168158 -0.39702,-0.09566 -0.56955,-0.167363 -0.68439,-0.284488 -0.15543,-0.158517 -0.20621,-0.429675 -0.12998,-0.69433 0.0204,-0.07082 0.0693,-0.169649 0.11184,-0.225951 0.0741,-0.09799 0.1893,-0.180009 0.33714,-0.240045 0.3077,-0.124909 0.70258,-0.128151 1.01227,-0.0083 0.28737,0.111211 0.47115,0.318907 0.51549,0.582512 0.009,0.0554 0.0119,0.1846 0.006,0.234511 l -0.003,0.02692 h -0.19707 -0.19705 l 0.003,-0.02635 c 0.006,-0.04426 0.003,-0.127883 -0.006,-0.168113 -0.032,-0.137862 -0.14694,-0.249811 -0.31801,-0.309554 -0.0846,-0.02955 -0.15352,-0.04155 -0.25924,-0.04512 -0.15333,-0.0051 -0.27027,0.01706 -0.3857,0.07338 -0.14634,0.07143 -0.22329,0.181037 -0.22329,0.318279 0,0.104891 0.0509,0.190746 0.15324,0.258893 0.12239,0.08139 0.27725,0.131794 0.62395,0.20294 0.4594,0.0943 0.54792,0.125756 0.66425,0.236068 0.0982,0.09307 0.16682,0.224345 0.20096,0.384105 0.0104,0.04741 0.0119,0.07852 0.0134,0.163003 2.2e-4,0.175903 -0.0278,0.284524 -0.10366,0.400276 -0.0341,0.05205 -0.13117,0.145997 -0.19365,0.18759 -0.16042,0.106691 -0.37811,0.176004 -0.62119,0.1978 -0.0614,0.0057 -0.22802,0.0064 -0.28999,0.0021 z m -3.97293,-1.396665 v -1.342813 l 0.27617,0.0014 0.27617,0.0014 0.0149,0.04062 c 0.0521,0.147187 0.15968,0.426615 0.26704,0.693096 0.0687,0.170656 0.1739,0.431655 0.23367,0.579986 0.0912,0.226379 0.17766,0.45133 0.25077,0.652487 l 0.0149,0.04063 0.0638,-0.130501 c 0.13563,-0.27727 0.21558,-0.471957 0.46788,-1.139672 0.12879,-0.340861 0.20016,-0.524969 0.25797,-0.665537 l 0.0303,-0.07396 h 0.27488 0.27486 v 1.342678 1.342676 h -0.2059 -0.2059 l -1.8e-4,-0.946834 -1.8e-4,-0.946828 -0.0409,0.09569 c -0.23924,0.560094 -0.52999,1.282784 -0.68663,1.706698 l -0.0338,0.09143 -0.17701,-0.0014 -0.17699,-0.0014 -0.10514,-0.263898 c -0.0579,-0.145149 -0.15554,-0.386568 -0.21707,-0.536491 -0.18909,-0.46087 -0.2928,-0.724424 -0.40506,-1.029481 l -0.0119,-0.03191 -0.003,0.02027 c -0.0149,0.08615 -0.0182,0.313017 -0.0182,1.055575 v 0.785889 l -0.20734,0.0014 -0.20734,0.0014 v -1.342798 z m 6.16334,1.338785 c -10e-4,-0.0021 -0.003,-0.517584 -0.003,-1.145476 v -1.141614 l -0.41903,-7e-6 h -0.41905 V 40.81451 c 0,-0.152729 10e-4,-0.178267 0.0104,-0.197208 l 0.0104,-0.02177 1.05732,0.0014 1.05731,0.0014 v 0.194295 0.194302 l -0.43063,0.0014 -0.43064,0.0014 v 1.145448 1.145434 h -0.21364 c -0.11748,0 -0.21536,-0.0014 -0.2175,-0.0036 z m 1.52613,-7.13e-4 c -7.1e-4,-0.0021 -0.001,-0.523733 -0.001,-1.158527 6e-5,-0.846211 0.001,-1.198281 0.007,-1.319475 0.004,-0.09091 0.009,-0.173774 0.0104,-0.184141 l 0.003,-0.01884 h 0.20563 0.20563 v 1.34267 1.342678 h -0.21426 c -0.11778,0 -0.21509,-0.0021 -0.2161,-0.0043 z m -9.31053,-0.384506 c -0.0962,-0.01487 -0.19239,-0.05348 -0.25914,-0.104073 -0.21427,-0.162402 -0.25536,-0.539833 -0.0858,-0.788837 0.0599,-0.08794 0.15795,-0.149701 0.28508,-0.17953 0.1392,-0.03263 0.32505,-0.02863 0.43961,0.0095 0.13087,0.04355 0.21292,0.136866 0.2259,0.256958 0.003,0.02705 0.004,0.05119 0.003,0.05361 -0.001,0.0021 -0.0693,0.0043 -0.15049,0.0043 -0.11318,0 -0.14827,-0.0014 -0.14982,-0.0071 -0.0173,-0.06033 -0.0451,-0.09638 -0.0892,-0.115941 -0.0149,-0.0064 -0.0449,-0.01264 -0.0706,-0.01443 -0.13355,-0.0091 -0.23046,0.06669 -0.27037,0.21143 -0.0149,0.05254 -0.0174,0.175146 -0.006,0.234104 0.0312,0.155605 0.13741,0.24263 0.29629,0.24303 0.0399,0 0.12894,-0.0089 0.14933,-0.01507 0.009,-0.0028 0.0104,-0.01145 0.009,-0.09982 l -10e-4,-0.09671 -0.10871,-0.0028 c -0.0598,-0.0014 -0.10871,-0.0051 -0.10871,-0.0071 0,-0.0021 0,-0.04741 0,-0.100058 v -0.0957 h 0.24946 0.24944 l -0.001,0.282331 -0.001,0.282324 -0.0174,0.0051 c -0.0306,0.0086 -0.10217,0.02235 -0.1798,0.03441 -0.0854,0.01338 -0.34451,0.02006 -0.40599,0.01056 z m -4.97679,-0.01663 c -10e-4,-0.0014 -0.003,-0.238181 -0.003,-0.526338 v -0.523935 h 0.1508 0.15079 v 0.420496 0.420487 h 0.23503 0.23502 l -0.001,0.104386 -10e-4,0.10437 -0.38182,0.0014 c -0.21002,7.14e-4 -0.38292,7.14e-4 -0.38425,-7.14e-4 z m 2.49154,-0.523918 v -0.526346 h 0.15018 c 0.11511,0 0.15065,0.0014 0.15224,0.0073 0.001,0.0043 6.7e-4,0.240637 -8.6e-4,0.525895 l -0.003,0.51865 -0.14935,7.14e-4 -0.14934,7.14e-4 v -0.526339 z m 0.88448,-1.093116 c -0.12284,-0.0724 -0.19587,-0.115168 -0.22146,-0.129698 -0.0153,-0.0088 -0.22864,-0.134753 -0.29674,-0.175354 -0.0239,-0.01428 -0.0202,-0.01692 0.0463,-0.03248 0.0268,-0.0064 0.16471,-0.04005 0.30668,-0.07515 0.14187,-0.03513 0.31207,-0.07695 0.37804,-0.09298 l 0.12001,-0.02921 0.0338,0.01071 c 0.0186,0.0057 0.0573,0.01771 0.086,0.02635 0.0287,0.0086 0.10054,0.03092 0.1595,0.04961 0.059,0.01871 0.15689,0.04961 0.2175,0.06875 0.26973,0.08513 0.31609,0.100503 0.31609,0.104905 0,0.0028 -0.0104,0.0073 -0.0217,0.01056 -0.0119,0.0028 -0.0544,0.01635 -0.0943,0.02927 -0.0399,0.01294 -0.14292,0.04598 -0.2291,0.07354 -0.26106,0.08347 -0.54034,0.173624 -0.63824,0.206016 -0.0289,0.0095 -0.0537,0.01721 -0.0552,0.017 -10e-4,0 -0.0497,-0.02799 -0.10707,-0.06182 z m 1.79217,-0.27989 c -0.0256,-0.0057 -0.0724,-0.01563 -0.1044,-0.02264 -0.032,-0.0071 -0.10232,-0.02192 -0.1566,-0.03319 -0.0543,-0.0113 -0.1273,-0.02671 -0.1624,-0.03413 -0.0351,-0.0074 -0.11987,-0.02534 -0.1885,-0.03977 -0.0686,-0.01443 -0.156,-0.03299 -0.19428,-0.0412 -0.0382,-0.0082 -0.10619,-0.02256 -0.15081,-0.03199 -0.0446,-0.0094 -0.11897,-0.02521 -0.1653,-0.03528 -0.0462,-0.01 -0.12195,-0.02585 -0.1682,-0.0352 -0.10455,-0.02121 -0.10469,-0.02121 -0.0867,-0.03013 0.0217,-0.01071 0.11511,-0.0517 0.20847,-0.09119 0.0463,-0.01956 0.0919,-0.0392 0.10158,-0.04355 0.009,-0.0043 0.0305,-0.01309 0.0464,-0.01927 0.0159,-0.0064 0.0492,-0.0207 0.0739,-0.0322 0.0247,-0.01145 0.0464,-0.02085 0.048,-0.02085 0.003,0 0.11897,-0.04969 0.16219,-0.06961 0.0242,-0.01115 0.14351,-0.06182 0.216,-0.09168 l 0.0419,-0.01736 0.11749,0.01398 c 0.0647,0.0076 0.17361,0.02057 0.2422,0.0287 0.0686,0.0082 0.15209,0.01843 0.18558,0.02292 0.0335,0.0043 0.0779,0.0098 0.0986,0.01175 0.0342,0.0036 0.15821,0.01828 0.33641,0.04056 0.0367,0.0043 0.11287,0.01353 0.16939,0.01991 0.0565,0.0064 0.10945,0.01324 0.11778,0.01535 0.0149,0.0036 0.0149,0.0043 -0.015,0.02485 -0.0461,0.0322 -0.0537,0.0377 -0.18797,0.137044 -0.069,0.05105 -0.14678,0.107939 -0.17297,0.126455 -0.0622,0.04405 -0.066,0.04683 -0.12522,0.09103 -0.0567,0.04227 -0.11541,0.08519 -0.16298,0.119035 -0.0175,0.01249 -0.0332,0.02427 -0.0348,0.02613 -0.006,0.0079 -0.032,0.02299 -0.0375,0.02228 -0.003,-7.13e-4 -0.0269,-0.0051 -0.0524,-0.01071 z m -5.16175,-0.04798 c -10e-4,-0.0043 -0.009,-0.04769 -0.0171,-0.09716 -0.007,-0.04948 -0.0723,-0.436675 -0.14277,-0.860518 -0.0705,-0.423837 -0.127,-0.773579 -0.12567,-0.777199 0.001,-0.0036 0.0622,-0.0257 0.13519,-0.04905 0.073,-0.02342 0.22403,-0.0721 0.33567,-0.108282 0.11169,-0.0362 0.2813,-0.09099 0.377,-0.121786 0.0958,-0.03077 0.19227,-0.06212 0.21459,-0.06954 0.0458,-0.01527 0.30484,-0.09872 0.37989,-0.122395 0.0271,-0.0086 0.0513,-0.01736 0.0538,-0.01963 0.003,-0.0021 0.0119,-0.07695 0.0219,-0.165971 0.009,-0.08902 0.0225,-0.211443 0.029,-0.272051 0.0168,-0.157912 0.0296,-0.272437 0.0308,-0.273572 8.6e-4,-7.13e-4 0.28918,0.0113 0.69688,0.02977 0.10529,0.0051 0.25535,0.01145 0.3335,0.01487 0.48617,0.02134 0.60936,0.02735 0.61181,0.02977 10e-4,0.0014 -0.009,0.08742 -0.0234,0.190868 -0.0149,0.103479 -0.0314,0.227272 -0.0378,0.27512 -0.006,0.04783 -0.0134,0.102661 -0.0171,0.121786 -0.003,0.01914 -0.0119,0.0844 -0.0202,0.145 -0.007,0.06062 -0.0225,0.165008 -0.0318,0.231998 -0.009,0.06697 -0.0239,0.171385 -0.0323,0.231992 -0.009,0.06062 -0.0213,0.154571 -0.0288,0.208795 -0.007,0.05427 -0.0195,0.14036 -0.0265,0.191403 -0.007,0.05104 -0.0149,0.0946 -0.0164,0.09682 -0.004,0.0043 -0.0851,0.01056 -0.3284,0.02499 -0.083,0.0051 -0.21082,0.01279 -0.2842,0.01736 -0.0733,0.0043 -0.20125,0.01249 -0.28419,0.01728 -0.25841,0.01527 -0.2581,0.01527 -0.25801,0.02241 6e-5,0.0064 0.0271,0.166471 0.0576,0.342225 0.006,0.03783 0.0119,0.0718 0.0119,0.07556 0,0.0083 0.0675,-0.02049 -0.75688,0.322577 -0.37643,0.156634 -0.72144,0.300324 -0.76671,0.3193 -0.0452,0.01899 -0.0839,0.03449 -0.0857,0.03449 -10e-4,0 -0.004,-0.0036 -0.006,-0.0071 z m 4.36427,-1.016494 c 0,-0.0051 0.0165,-0.02299 0.14485,-0.158583 0.0464,-0.04897 0.0909,-0.09628 0.0987,-0.105114 l 0.0149,-0.01606 0.13637,-0.0097 c 0.075,-0.0051 0.17023,-0.01219 0.21169,-0.01527 0.13325,-0.01 0.31457,-0.02278 0.4901,-0.03449 0.0941,-0.0064 0.1808,-0.01249 0.19266,-0.01383 0.0219,-0.0021 0.0421,0.01056 0.13787,0.08819 0.0104,0.0091 0.0503,0.03956 0.087,0.06783 0.0367,0.0282 0.0702,0.05476 0.0744,0.05904 0.004,0.0043 0.0119,0.01041 0.0189,0.01368 0.006,0.0036 0.0104,0.0083 0.0104,0.01115 0,0.0071 -0.0224,0.0092 -0.1972,0.02034 -0.0814,0.0051 -0.17922,0.0119 -0.2175,0.01487 -0.0382,0.0028 -0.11005,0.008 -0.15948,0.0113 -0.12314,0.0079 -0.40978,0.02748 -0.80619,0.05504 -0.0654,0.0043 -0.1456,0.01011 -0.17834,0.01234 -0.0327,0.0021 -0.0595,0.0021 -0.0595,-7.15e-4 z m 3.84822,-0.04362 c -0.10366,-0.01175 -0.23264,-0.04783 -0.31108,-0.08703 -0.13622,-0.06811 -0.24355,-0.176566 -0.28481,-0.287871 -0.0519,-0.140019 -0.0256,-0.286303 0.0803,-0.446426 0.0668,-0.10092 0.16017,-0.159982 0.31841,-0.201213 0.0744,-0.01942 0.16307,-0.03355 0.3683,-0.05868 0.24625,-0.0302 0.34917,-0.05083 0.45353,-0.09099 l 0.0446,-0.01713 0.0119,-0.03278 c 0.0332,-0.08849 0.0376,-0.184764 0.0119,-0.252139 -0.0855,-0.223832 -0.47874,-0.314453 -0.75875,-0.174862 -0.12418,0.0619 -0.19213,0.159804 -0.20203,0.291121 l -0.004,0.05326 h -0.13504 c -0.12909,0 -0.13518,-7.14e-4 -0.1386,-0.0113 -0.006,-0.01764 0.007,-0.124448 0.0213,-0.167486 0.0562,-0.182122 0.2207,-0.328003 0.45452,-0.403061 0.22926,-0.0736 0.4886,-0.07458 0.6925,-0.0028 0.26506,0.0935 0.37974,0.272015 0.39787,0.619358 0.004,0.09048 -0.003,0.226637 -0.0293,0.472693 -0.028,0.268588 -0.0318,0.324447 -0.0318,0.463604 0,0.109204 0.006,0.195379 0.021,0.277333 l 0.003,0.02177 h -0.12834 -0.12835 l -1.2e-4,-0.155148 -1.2e-4,-0.155149 -0.0361,0.03777 c -0.0199,0.02085 -0.059,0.06454 -0.087,0.09725 -0.0779,0.0909 -0.14292,0.135661 -0.25024,0.172291 -0.0993,0.03391 -0.24803,0.04969 -0.35425,0.0377 z m 0.19428,-0.183172 c 0.15155,-0.03342 0.29285,-0.118365 0.39225,-0.235717 0.0979,-0.115554 0.14723,-0.244057 0.14708,-0.383277 -6e-5,-0.07033 -0.006,-0.111688 -0.0265,-0.178131 l -0.0152,-0.04963 -0.0559,0.02777 c -0.0931,0.04619 -0.17621,0.06332 -0.41558,0.08584 -0.15483,0.01457 -0.21601,0.02399 -0.28409,0.04369 -0.16468,0.04769 -0.24875,0.157605 -0.24839,0.324656 2e-4,0.112565 0.0299,0.187654 0.10321,0.26114 0.10202,0.102259 0.24396,0.138725 0.40313,0.103598 z m 2.19605,0.177146 c -0.10648,-0.0091 -0.19825,-0.03533 -0.29368,-0.08425 -0.0747,-0.03826 -0.12359,-0.07458 -0.18039,-0.13407 -0.0492,-0.05147 -0.0738,-0.08511 -0.10499,-0.143766 l -0.0216,-0.04063 -1.2e-4,0.18705 -1.2e-4,0.187047 h -0.13043 -0.13042 v -1.281777 -1.28177 h 0.1392 0.1392 l 2.2e-4,0.540832 2.2e-4,0.540839 0.0149,-0.03291 c 0.0849,-0.197535 0.27323,-0.328288 0.51676,-0.358939 0.0752,-0.0095 0.2144,-0.0036 0.28729,0.01175 0.19222,0.04091 0.36014,0.139051 0.4563,0.266753 0.0787,0.104519 0.13325,0.24624 0.16415,0.426628 0.0152,0.08856 0.0213,0.296932 0.0119,0.392529 -0.0201,0.194639 -0.0834,0.385569 -0.16658,0.50208 -0.14928,0.209202 -0.42037,0.326374 -0.70021,0.302664 z m 0.11229,-0.193387 c 0.25068,-0.04491 0.42683,-0.294619 0.46453,-0.658514 0.009,-0.08092 0.003,-0.231855 -0.009,-0.30477 -0.0363,-0.204348 -0.11749,-0.363987 -0.2324,-0.457022 -0.0486,-0.03941 -0.12894,-0.07784 -0.18446,-0.08829 -0.15046,-0.02835 -0.39508,0.02335 -0.50519,0.10675 -0.12463,0.09438 -0.20187,0.247798 -0.22924,0.454944 -0.007,0.05855 -0.007,0.222095 6e-5,0.280446 0.036,0.271466 0.14337,0.486779 0.28982,0.581442 0.11139,0.07195 0.28078,0.107449 0.40595,0.08502 z m -3.96857,-0.648618 -0.001,-0.813411 -0.0232,-0.0079 c -0.0174,-0.0057 -0.0562,-0.0077 -0.15514,-0.0071 l -0.13191,7.14e-4 v -0.09885 -0.09885 h 0.15731 0.15733 l -0.003,-0.01849 c -0.0213,-0.106705 -0.0192,-0.287072 0.004,-0.378043 0.0553,-0.212659 0.19907,-0.328039 0.42169,-0.338414 0.0706,-0.0036 0.15059,0.0036 0.22297,0.01963 l 0.0433,0.0095 v 0.109918 c 0,0.0965 -10e-4,0.109501 -0.009,0.106497 -0.0604,-0.0232 -0.14129,-0.03426 -0.19453,-0.02677 -0.0552,0.0077 -0.0962,0.02835 -0.13161,0.06575 -0.0521,0.05504 -0.0773,0.120477 -0.0885,0.228378 -0.006,0.05405 -2.2e-4,0.169257 0.009,0.208325 l 0.003,0.01368 h 0.18497 0.18496 v 0.0986 0.0986 h -0.17606 -0.1761 l -0.003,0.04783 c -0.015,0.193994 -0.0168,0.300609 -0.0158,0.927971 l 10e-4,0.665545 h -0.1395 -0.1395 l -0.001,-0.813411 z m -2.71291,0.493918 c -0.0239,-0.01294 -0.10217,-0.05498 -0.174,-0.09347 -0.14995,-0.08043 -0.18884,-0.101337 -0.23924,-0.128507 -0.0199,-0.01071 -0.0558,-0.02991 -0.0797,-0.04262 -0.0239,-0.01264 -0.0617,-0.03291 -0.0842,-0.04497 -0.059,-0.03199 -0.1154,-0.06218 -0.1682,-0.09017 -0.13295,-0.07061 -0.18805,-0.100087 -0.21168,-0.113308 -0.0149,-0.008 -0.0399,-0.02156 -0.0565,-0.03006 -0.0168,-0.0085 -0.0305,-0.01764 -0.0305,-0.02021 0,-0.0028 0.0422,-0.06661 0.094,-0.142338 0.0516,-0.07568 0.11957,-0.175461 0.15092,-0.22171 0.0314,-0.04627 0.0922,-0.134992 0.13503,-0.197193 0.043,-0.06218 0.0799,-0.117012 0.0821,-0.1218 0.001,-0.0051 0.006,-0.01 0.007,-0.0116 10e-4,-0.0014 0.032,-0.04462 0.0668,-0.0957 0.0934,-0.137341 0.13474,-0.197999 0.16822,-0.24649 0.0165,-0.02391 0.0635,-0.0931 0.10455,-0.153701 0.0797,-0.117904 0.10321,-0.151649 0.1218,-0.174852 l 0.0119,-0.01458 0.20285,0.207089 c 0.11154,0.113904 0.21851,0.223552 0.23765,0.243678 0.0364,0.03834 0.13697,0.141729 0.31283,0.321635 0.13519,0.138398 0.12909,0.130872 0.11808,0.143543 -0.004,0.0057 -0.0528,0.07541 -0.10648,0.155149 -0.15928,0.236175 -0.17422,0.258315 -0.21557,0.318994 -0.0217,0.03191 -0.075,0.1102 -0.11808,0.174003 -0.0433,0.06383 -0.0938,0.138175 -0.11243,0.165287 -0.0186,0.02713 -0.0625,0.09172 -0.0974,0.143558 -0.0351,0.05183 -0.0666,0.09418 -0.0702,0.09409 -0.003,0 -0.026,-0.01071 -0.05,-0.02363 z"
     id="path4179"
     inkscape:connector-curvature="0" />
</svg>
